<?xml version="1.0" encoding="utf-8"?>
<!-- Generator: Adobe Illustrator 16.0.0, SVG Export Plug-In . SVG Version: 6.00 Build 0)  -->
<!DOCTYPE svg PUBLIC "-//W3C//DTD SVG 1.1//EN" "http://www.w3.org/Graphics/SVG/1.1/DTD/svg11.dtd">
<svg version="1.1" id="Calque_1" xmlns="http://www.w3.org/2000/svg" xmlns:xlink="http://www.w3.org/1999/xlink" x="0px" y="0px"
	 width="633.977px" height="185.941px" viewBox="0 0 633.977 185.941" enable-background="new 0 0 633.977 185.941"
	 xml:space="preserve">
<g id="logo-type">
	<path id="Fill-1" fill="#86D7F1" d="M228.711,136.491c-1.149-1.059-2.537-1.982-4.162-2.774c-1.628-0.792-3.479-1.599-5.551-2.421
		c-1.569-0.586-2.916-1.146-4.035-1.674c-1.122-0.528-2.062-1.101-2.816-1.718c-0.757-0.615-1.313-1.306-1.682-2.068
		c-0.367-0.762-0.548-1.644-0.548-2.643c0-1.938,0.812-3.36,2.438-4.271c1.625-0.91,3.53-1.361,5.718-1.361
		c2.522,0,4.684,0.251,6.479,0.749c1.793,0.501,3.11,0.98,3.951,1.451l-0.008-7.524c0,0-0.282-0.084-0.456-0.134
		c-0.812-0.232-1.752-0.454-2.815-0.661c-1.063-0.206-2.215-0.382-3.448-0.528c-1.229-0.146-2.466-0.22-3.695-0.22
		c-4.938,0-8.828,1.188-11.688,3.563c-2.856,2.375-4.287,5.593-4.287,9.643c0,2.056,0.336,3.786,1.009,5.192
		c0.675,1.408,1.569,2.613,2.689,3.611c1.121,0.999,2.451,1.863,3.994,2.597c1.541,0.733,3.149,1.453,4.835,2.157
		c3.475,1.469,5.971,2.789,7.479,3.962c1.518,1.176,2.271,2.765,2.271,4.757c0,1.938-0.771,3.349-2.312,4.229
		c-1.543,0.883-3.906,1.365-7.104,1.365c-3.256-0.052-5.486-0.248-7.819-1.061c-1.988-0.715-3.348-1.21-4.289-1.586l0.003,7.604
		c0.744,0.258,1.935,0.646,3.023,0.983c2.423,0.697,5.214,0.973,9.08,0.973c5.551,0,9.823-1.085,12.823-3.261
		c2.998-2.171,4.498-5.373,4.498-9.599c0-2.172-0.312-4.008-0.929-5.503C230.741,138.824,229.859,137.547,228.711,136.491z
		 M324.594,150.859c-1.007-0.354-1.891-1.195-2.562-2.048c-0.673-0.853-1.177-2.024-1.514-3.521
		c-0.336-1.498-0.504-3.392-0.504-5.682v-21.134h13.017v-6.869h-13.017l0.011-14.396l-7.831,1.926v40.562
		c0,3.054,0.237,5.737,0.714,8.057c0.479,2.32,1.287,4.345,2.464,5.929c1.181,1.586,2.66,2.887,4.596,3.681
		c2.126,0.935,7.465,2.038,13.072,0.696v-7.188C328.553,151.952,325.604,151.212,324.594,150.859z M301.545,110.997
		c-0.869-0.088-1.645-0.131-2.313-0.131c-3.42,0-6.503,0.307-9.249,0.925c-2.746,0.616-5.044,1.275-6.895,1.981v43.853h7.819
		v-38.479c0.444-0.118,1.389-0.337,2.813-0.662c1.429-0.32,2.871-0.482,4.33-0.482c2.242,0,4.078,0.162,5.508,0.482
		c1.433,0.323,2.45,0.604,3.069,0.837v-7.489c-0.701-0.146-1.684-0.331-2.522-0.479
		C303.268,111.205,302.413,111.085,301.545,110.997z M265.871,147.015c-2.22,3.021-5.229,4.53-9.038,4.53
		c-3.812,0-6.824-1.511-9.038-4.53c-2.215-3.021-3.321-7.118-3.321-12.285c0-5.165,1.106-9.263,3.321-12.284
		c2.214-3.021,5.228-4.533,9.038-4.533c3.812,0,6.824,1.512,9.038,4.533s3.317,7.119,3.317,12.284
		C269.192,139.896,268.085,143.99,265.871,147.015z M271.588,117.293c-1.822-2.11-3.994-3.742-6.521-4.887
		c-2.521-1.146-5.27-1.718-8.236-1.718c-2.976,0-5.722,0.568-8.24,1.718c-2.521,1.145-4.696,2.771-6.516,4.887
		c-1.821,2.112-3.237,4.652-4.246,7.618c-1.013,2.965-1.518,6.236-1.518,9.817c0,3.643,0.505,6.93,1.518,9.861
		c1.009,2.938,2.423,5.458,4.246,7.573c1.817,2.111,3.99,3.741,6.516,4.887c2.521,1.146,5.269,1.72,8.24,1.72
		c2.971,0,5.719-0.571,8.236-1.72c2.522-1.146,4.694-2.771,6.521-4.887c1.821-2.113,3.237-4.638,4.246-7.573
		c1.009-2.935,1.513-6.223,1.513-9.861c0-3.579-0.504-6.854-1.513-9.817S273.409,119.407,271.588,117.293L271.588,117.293z"/>
	<path id="Fill-3" fill="#86D7F1" d="M365.785,96.766c-1.269,0-2.349,0.438-3.229,1.312c-0.894,0.878-1.332,2.062-1.332,3.548
		c0,1.488,0.438,2.669,1.332,3.546c0.887,0.878,1.965,1.314,3.229,1.314c1.271,0,2.35-0.438,3.235-1.314
		c0.888-0.877,1.332-2.06,1.332-3.546c0-1.484-0.444-2.67-1.332-3.548S367.057,96.766,365.785,96.766z M424.881,151.651
		c-1.013-0.354-1.891-1.195-2.562-2.048s-1.177-2.024-1.513-3.521c-0.337-1.498-0.505-3.392-0.505-5.682v-21.134h13.018v-6.869
		h-13.018V98.222l-7.819,1.405v40.859c0,3.054,0.237,5.737,0.714,8.057c0.479,2.32,1.285,4.345,2.464,5.929
		c1.181,1.586,2.66,2.887,4.598,3.681c2.126,0.935,7.465,2.038,13.07,0.696v-7.188C428.838,152.742,425.889,152.002,424.881,151.651
		z M403.806,137.281c-1.148-1.058-2.537-1.981-4.162-2.773c-1.627-0.793-3.477-1.6-5.55-2.422c-1.569-0.586-2.916-1.146-4.035-1.674
		c-1.123-0.528-2.062-1.101-2.817-1.718c-0.757-0.615-1.315-1.306-1.682-2.068c-0.365-0.762-0.545-1.644-0.545-2.643
		c0-1.938,0.811-3.359,2.438-4.271c1.625-0.91,3.531-1.36,5.723-1.36c2.521,0,4.68,0.25,6.475,0.749
		c1.793,0.5,3.11,0.979,3.951,1.45l-0.006-7.518c0,0-0.305-0.1-0.456-0.145c-0.812-0.232-1.752-0.454-2.816-0.661
		c-1.062-0.206-2.216-0.382-3.446-0.528c-1.229-0.146-2.469-0.219-3.695-0.219c-4.938,0-8.829,1.188-11.688,3.562
		c-2.854,2.379-4.289,5.595-4.289,9.646c0,2.056,0.336,3.787,1.012,5.192c0.674,1.408,1.566,2.613,2.688,3.611
		c1.121,0.999,2.451,1.863,3.994,2.597c1.541,0.733,3.153,1.453,4.834,2.157c3.475,1.469,5.971,2.789,7.481,3.962
		c1.514,1.179,2.271,2.765,2.271,4.757c0,1.938-0.771,3.349-2.312,4.229c-1.546,0.882-3.909,1.364-7.104,1.364
		c-3.257-0.052-5.487-0.248-7.82-1.061c-1.986-0.715-3.348-1.21-4.287-1.586l0.007,7.604c0.738,0.258,1.931,0.646,3.021,0.983
		c2.423,0.697,5.214,0.973,9.081,0.973c5.55,0,9.822-1.085,12.822-3.261c2.998-2.171,4.499-5.373,4.499-9.599
		c0-2.171-0.312-4.007-0.929-5.503C405.837,139.615,404.952,138.337,403.806,137.281z M361.879,158.415h7.816v-45.789h-7.816
		V158.415z M349.337,150.579c-0.509-0.529-0.869-1.23-1.098-2.113c-0.224-0.882-0.336-1.992-0.336-3.346V91.537l-7.814,1.881v53.021
		c0,4.347,1.009,7.544,3.022,9.6c2.021,2.055,5.942,3.327,11.354,3.396v-7.009c-1.232-0.175-2.271-0.396-3.11-0.658
		C350.513,151.504,349.841,151.105,349.337,150.579L349.337,150.579z"/>
</g>
<polygon id="Star" fill="#86D7F1" points="65.574,131.674 50.549,151.419 44.016,127.483 20.594,119.297 41.339,105.687 
	41.888,80.882 61.242,96.406 68.995,94.076 69.3,131.853 "/>
<polygon id="Star-2" fill="#AFE5F5" points="23.325,78.31 18.625,89.789 12.372,79.075 0,78.15 8.259,68.894 5.312,56.843 
	16.671,61.836 27.221,55.311 25.981,67.653 35.447,75.673 "/>
<polygon id="Star-2_1_" fill="#DAF3FA" points="66.959,65.668 63.198,74.854 58.197,66.282 48.3,65.542 54.905,58.138 52.55,48.496 
	61.635,52.49 70.076,47.271 69.085,57.146 69.99,65.01 "/>
<polygon id="Star_1_" fill="#86D7F1" points="568.402,131.674 583.427,151.419 589.96,127.483 613.382,119.297 592.636,105.687 
	592.088,80.882 572.734,96.406 564.981,94.076 564.677,131.853 "/>
<polygon id="Star-2_2_" fill="#AFE5F5" points="610.651,78.31 615.351,89.789 621.603,79.075 633.976,78.15 625.718,68.894 
	628.659,56.843 617.305,61.836 606.754,55.311 607.991,67.653 598.529,75.673 "/>
<polygon id="Star-2_3_" fill="#DAF3FA" points="567.017,65.67 570.778,74.854 575.779,66.282 585.677,65.542 579.07,58.138 
	581.427,48.496 572.342,52.49 563.899,47.271 564.891,57.146 563.985,65.01 "/>
<rect id="bg" x="69.464" y="0" fill="#86D7F1" width="495.049" height="74.728"/>
<path fill="#86D7F1" d="M565.512,185.942H68.464V0.868h497.049L565.512,185.942L565.512,185.942z M70.464,183.942h493.049V2.868
	H70.464V183.942z"/>
<g enable-background="new    ">
	<path fill="#FFFFFF" d="M192.089,23.208v3.045h-8.649v23.725h-3.624V26.253h-8.687v-3.045H192.089z"/>
	<path fill="#FFFFFF" d="M199.113,30.755c1.382,0,2.631,0.23,3.746,0.691c1.114,0.461,2.061,1.114,2.839,1.961
		c0.778,0.848,1.376,1.871,1.793,3.073c0.417,1.202,0.626,2.544,0.626,4.025c0,1.495-0.209,2.84-0.626,4.035
		c-0.417,1.196-1.015,2.217-1.793,3.064c-0.778,0.847-1.725,1.497-2.839,1.952c-1.115,0.454-2.363,0.682-3.746,0.682
		s-2.631-0.228-3.746-0.682c-1.115-0.455-2.064-1.105-2.849-1.952c-0.785-0.848-1.389-1.868-1.812-3.064
		c-0.423-1.195-0.635-2.54-0.635-4.035c0-1.481,0.211-2.823,0.635-4.025s1.028-2.226,1.812-3.073c0.784-0.847,1.734-1.5,2.849-1.961
		C196.481,30.985,197.73,30.755,199.113,30.755z M199.113,47.642c1.868,0,3.263-0.626,4.185-1.878
		c0.921-1.251,1.382-2.998,1.382-5.24c0-2.254-0.461-4.01-1.382-5.268c-0.922-1.258-2.316-1.887-4.185-1.887
		c-0.947,0-1.769,0.162-2.466,0.485c-0.698,0.324-1.28,0.791-1.747,1.401c-0.467,0.61-0.816,1.36-1.046,2.251
		s-0.346,1.896-0.346,3.017c0,1.121,0.115,2.124,0.346,3.008c0.23,0.885,0.579,1.629,1.046,2.232
		c0.467,0.604,1.049,1.068,1.747,1.392C197.344,47.48,198.166,47.642,199.113,47.642z"/>
	<path fill="#FFFFFF" d="M212.227,56.385V31.053h1.98c0.473,0,0.772,0.23,0.897,0.691l0.28,2.241
		c0.809-0.983,1.734-1.774,2.774-2.372c1.04-0.598,2.238-0.896,3.596-0.896c1.083,0,2.067,0.208,2.952,0.625
		c0.884,0.418,1.637,1.034,2.26,1.85c0.623,0.816,1.102,1.828,1.438,3.036s0.504,2.597,0.504,4.166c0,1.395-0.187,2.693-0.561,3.895
		c-0.374,1.202-0.909,2.242-1.606,3.12c-0.698,0.878-1.554,1.569-2.569,2.073c-1.015,0.505-2.158,0.757-3.428,0.757
		c-1.171,0-2.17-0.193-2.999-0.579s-1.56-0.935-2.195-1.645v8.369H212.227z M220.652,33.407c-1.083,0-2.034,0.249-2.849,0.747
		c-0.816,0.499-1.566,1.202-2.251,2.111v9.153c0.61,0.822,1.28,1.401,2.008,1.737c0.729,0.337,1.541,0.505,2.438,0.505
		c1.756,0,3.107-0.629,4.054-1.887c0.946-1.258,1.419-3.052,1.419-5.38c0-1.233-0.109-2.292-0.327-3.176
		c-0.218-0.885-0.533-1.61-0.943-2.177c-0.411-0.566-0.916-0.98-1.513-1.242C222.09,33.538,221.411,33.407,220.652,33.407z"/>
	<path fill="#FFFFFF" d="M244.563,38.806v11.171h-3.605v-26.77h7.566c1.693,0,3.157,0.171,4.39,0.514
		c1.233,0.342,2.251,0.837,3.054,1.484c0.803,0.648,1.398,1.43,1.784,2.345c0.386,0.915,0.579,1.94,0.579,3.073
		c0,0.946-0.149,1.831-0.448,2.652c-0.299,0.822-0.732,1.561-1.298,2.214c-0.567,0.654-1.258,1.212-2.074,1.672
		c-0.816,0.461-1.741,0.81-2.774,1.046c0.448,0.262,0.847,0.642,1.195,1.14l7.809,10.63h-3.213c-0.66,0-1.146-0.255-1.457-0.766
		l-6.95-9.565c-0.212-0.299-0.442-0.514-0.691-0.645c-0.25-0.13-0.623-0.195-1.121-0.195H244.563z M244.563,36.172h3.792
		c1.058,0,1.989-0.127,2.792-0.383c0.804-0.255,1.476-0.616,2.018-1.083c0.542-0.468,0.95-1.024,1.224-1.672
		s0.411-1.364,0.411-2.148c0-1.595-0.526-2.796-1.579-3.605s-2.619-1.215-4.698-1.215h-3.96V36.172z"/>
	<path fill="#FFFFFF" d="M278.02,49.977h-1.476c-0.324,0-0.585-0.05-0.785-0.149s-0.33-0.312-0.392-0.635l-0.374-1.757
		c-0.498,0.449-0.984,0.851-1.457,1.205c-0.473,0.355-0.971,0.654-1.494,0.896c-0.523,0.243-1.081,0.427-1.672,0.552
		c-0.591,0.124-1.249,0.187-1.971,0.187c-0.735,0-1.423-0.104-2.064-0.309c-0.641-0.206-1.199-0.516-1.672-0.929
		c-0.473-0.412-0.85-0.934-1.13-1.565c-0.28-0.631-0.42-1.377-0.42-2.239c0-0.75,0.206-1.472,0.616-2.165
		c0.411-0.693,1.074-1.31,1.99-1.847s2.114-0.978,3.596-1.322c1.482-0.343,3.294-0.515,5.436-0.515V37.9
		c0-1.479-0.314-2.597-0.943-3.355s-1.56-1.138-2.793-1.138c-0.81,0-1.491,0.103-2.045,0.309c-0.554,0.205-1.034,0.436-1.438,0.691
		c-0.405,0.255-0.753,0.485-1.046,0.69c-0.293,0.206-0.583,0.309-0.869,0.309c-0.225,0-0.42-0.059-0.589-0.178
		c-0.168-0.118-0.302-0.265-0.401-0.438l-0.598-1.065c1.046-1.009,2.173-1.762,3.381-2.26s2.547-0.747,4.017-0.747
		c1.059,0,1.999,0.174,2.821,0.522c0.822,0.349,1.513,0.835,2.074,1.457c0.561,0.623,0.983,1.377,1.27,2.261
		c0.287,0.885,0.43,1.855,0.43,2.914V49.977z M269.39,47.941c0.585,0,1.121-0.059,1.606-0.178c0.486-0.118,0.943-0.286,1.373-0.504
		s0.841-0.482,1.233-0.794c0.393-0.312,0.775-0.666,1.149-1.065v-3.904c-1.532,0-2.833,0.098-3.904,0.292
		c-1.071,0.194-1.943,0.447-2.615,0.761c-0.673,0.312-1.162,0.683-1.467,1.108s-0.458,0.902-0.458,1.428
		c0,0.501,0.081,0.934,0.243,1.297c0.162,0.363,0.38,0.661,0.654,0.893c0.273,0.231,0.598,0.401,0.971,0.507
		C268.549,47.887,268.954,47.941,269.39,47.941z"/>
	<path fill="#FFFFFF" d="M288.799,50.276c-1.494,0-2.643-0.417-3.446-1.252c-0.804-0.834-1.205-2.036-1.205-3.605V33.837h-2.279
		c-0.199,0-0.367-0.059-0.504-0.178c-0.137-0.118-0.206-0.302-0.206-0.551v-1.326l3.101-0.393l0.766-5.847
		c0.025-0.188,0.105-0.34,0.243-0.458s0.312-0.178,0.523-0.178h1.681v6.52h5.417v2.41h-5.417v11.358
		c0,0.797,0.193,1.389,0.579,1.774c0.386,0.387,0.884,0.579,1.495,0.579c0.348,0,0.65-0.047,0.906-0.14
		c0.255-0.094,0.477-0.196,0.663-0.309c0.187-0.112,0.346-0.215,0.477-0.309c0.131-0.093,0.246-0.14,0.346-0.14
		c0.174,0,0.33,0.105,0.467,0.317l0.972,1.588c-0.573,0.536-1.264,0.956-2.074,1.261C290.493,50.124,289.658,50.276,288.799,50.276z
		"/>
	<path fill="#FFFFFF" d="M304.491,30.755c1.133,0,2.179,0.189,3.138,0.569s1.787,0.928,2.485,1.645
		c0.697,0.716,1.242,1.6,1.634,2.652c0.393,1.053,0.588,2.251,0.588,3.596c0,0.523-0.056,0.872-0.168,1.047
		c-0.112,0.174-0.324,0.261-0.635,0.261h-12.591c0.025,1.196,0.187,2.236,0.485,3.12c0.299,0.885,0.71,1.622,1.233,2.214
		c0.523,0.592,1.146,1.034,1.868,1.326c0.722,0.293,1.532,0.439,2.429,0.439c0.834,0,1.554-0.097,2.158-0.29
		c0.604-0.192,1.124-0.401,1.56-0.626c0.436-0.224,0.8-0.433,1.093-0.625c0.292-0.193,0.544-0.29,0.756-0.29
		c0.274,0,0.486,0.106,0.635,0.317l0.934,1.215c-0.411,0.498-0.903,0.931-1.476,1.298c-0.573,0.367-1.187,0.67-1.84,0.906
		s-1.33,0.414-2.027,0.532c-0.698,0.118-1.389,0.178-2.074,0.178c-1.308,0-2.513-0.222-3.615-0.663
		c-1.102-0.442-2.055-1.09-2.858-1.943c-0.803-0.853-1.429-1.908-1.877-3.166c-0.448-1.258-0.672-2.702-0.672-4.334
		c0-1.32,0.202-2.553,0.607-3.699c0.404-1.146,0.987-2.139,1.747-2.979c0.759-0.841,1.688-1.501,2.783-1.98
		S303.121,30.755,304.491,30.755z M304.566,33.202c-1.607,0-2.871,0.464-3.792,1.392c-0.922,0.928-1.495,2.214-1.719,3.857h10.293
		c0-0.771-0.106-1.479-0.317-2.12c-0.212-0.642-0.523-1.195-0.934-1.663c-0.411-0.467-0.913-0.828-1.504-1.083
		C306.001,33.33,305.325,33.202,304.566,33.202z"/>
	<path fill="#FFFFFF" d="M329.897,49.977c-0.474,0-0.772-0.23-0.896-0.691l-0.299-2.298c-0.811,0.984-1.734,1.772-2.775,2.363
		c-1.039,0.592-2.232,0.888-3.576,0.888c-1.084,0-2.068-0.209-2.952-0.626s-1.638-1.03-2.26-1.84
		c-0.623-0.81-1.103-1.818-1.438-3.026c-0.336-1.208-0.504-2.597-0.504-4.166c0-1.395,0.187-2.693,0.56-3.896
		c0.374-1.201,0.913-2.244,1.616-3.129c0.704-0.884,1.559-1.578,2.569-2.083c1.008-0.504,2.154-0.756,3.438-0.756
		c1.158,0,2.148,0.195,2.97,0.588c0.822,0.393,1.557,0.943,2.204,1.653V22.46h3.326v27.518H329.897z M323.451,47.549
		c1.084,0,2.033-0.249,2.85-0.747c0.814-0.498,1.565-1.202,2.25-2.111v-9.153c-0.609-0.822-1.279-1.397-2.008-1.729
		c-0.729-0.329-1.535-0.494-2.42-0.494c-1.768,0-3.125,0.629-4.072,1.887c-0.946,1.258-1.42,3.051-1.42,5.38
		c0,1.232,0.106,2.288,0.318,3.166c0.211,0.878,0.523,1.601,0.934,2.167c0.411,0.567,0.916,0.981,1.514,1.242
		C321.994,47.418,322.679,47.549,323.451,47.549z"/>
	<path fill="#FFFFFF" d="M367.221,49.977h-2.803c-0.324,0-0.586-0.081-0.784-0.243c-0.2-0.161-0.349-0.367-0.448-0.616l-2.504-6.464
		H348.67l-2.503,6.464c-0.087,0.225-0.237,0.424-0.448,0.598c-0.213,0.175-0.474,0.262-0.785,0.262h-2.802l10.704-26.77h3.68
		L367.221,49.977z M349.679,40.039h9.995l-4.204-10.891c-0.274-0.673-0.542-1.514-0.804-2.522c-0.137,0.511-0.27,0.98-0.4,1.41
		s-0.26,0.807-0.384,1.131L349.679,40.039z"/>
	<path fill="#FFFFFF" d="M376.449,30.736c0.821,0,1.59,0.09,2.307,0.271c0.716,0.181,1.367,0.445,1.952,0.794h5.138v1.233
		c0,0.41-0.262,0.672-0.785,0.784l-2.148,0.299c0.424,0.81,0.635,1.713,0.635,2.709c0,0.922-0.177,1.759-0.531,2.513
		c-0.355,0.754-0.848,1.397-1.477,1.934c-0.629,0.535-1.376,0.946-2.241,1.232c-0.866,0.287-1.815,0.43-2.849,0.43
		c-0.885,0-1.719-0.105-2.504-0.317c-0.398,0.258-0.7,0.534-0.906,0.83c-0.205,0.297-0.308,0.587-0.308,0.869
		c0,0.464,0.181,0.814,0.542,1.053s0.84,0.409,1.438,0.513c0.598,0.103,1.277,0.154,2.037,0.154s1.534,0,2.325,0
		s1.566,0.069,2.326,0.208c0.759,0.139,1.438,0.365,2.036,0.681s1.077,0.75,1.438,1.305c0.36,0.555,0.542,1.273,0.542,2.156
		c0,0.819-0.203,1.613-0.607,2.382c-0.404,0.77-0.987,1.453-1.746,2.053c-0.76,0.599-1.688,1.077-2.784,1.437
		c-1.097,0.359-2.335,0.539-3.718,0.539s-2.594-0.137-3.633-0.411c-1.041-0.274-1.902-0.643-2.588-1.104s-1.199-0.994-1.541-1.599
		c-0.343-0.604-0.514-1.237-0.514-1.898c0-0.935,0.296-1.729,0.887-2.384c0.592-0.654,1.404-1.176,2.438-1.562
		c-0.536-0.249-0.962-0.581-1.28-0.998c-0.316-0.416-0.476-0.973-0.476-1.67c0-0.272,0.05-0.556,0.149-0.849
		c0.1-0.292,0.252-0.581,0.457-0.867c0.206-0.285,0.458-0.56,0.758-0.82c0.299-0.261,0.646-0.491,1.045-0.69
		c-0.934-0.522-1.666-1.217-2.194-2.083c-0.53-0.865-0.794-1.877-0.794-3.035c0-0.922,0.178-1.759,0.532-2.513
		c0.354-0.753,0.851-1.395,1.485-1.924s1.392-0.938,2.27-1.224C374.441,30.879,375.403,30.736,376.449,30.736z M382.352,50.937
		c0-0.482-0.131-0.87-0.393-1.162c-0.261-0.292-0.615-0.518-1.064-0.676c-0.448-0.159-0.965-0.276-1.551-0.353
		c-0.585-0.076-1.201-0.114-1.849-0.114s-1.308,0-1.98,0s-1.313-0.084-1.925-0.253c-0.709,0.337-1.285,0.749-1.727,1.235
		c-0.443,0.486-0.664,1.066-0.664,1.74c0,0.424,0.109,0.819,0.327,1.188s0.552,0.687,0.999,0.954
		c0.449,0.269,1.012,0.48,1.691,0.637c0.678,0.155,1.479,0.233,2.4,0.233c0.896,0,1.699-0.082,2.41-0.247
		c0.709-0.166,1.311-0.4,1.803-0.705c0.491-0.305,0.868-0.667,1.129-1.086C382.221,51.909,382.352,51.445,382.352,50.937z
		 M376.449,40.73c0.672,0,1.267-0.094,1.783-0.28c0.518-0.187,0.949-0.448,1.299-0.784c0.349-0.337,0.609-0.738,0.785-1.205
		c0.174-0.468,0.261-0.981,0.261-1.541c0-1.159-0.353-2.08-1.056-2.766c-0.703-0.685-1.728-1.027-3.072-1.027
		c-1.333,0-2.352,0.343-3.055,1.027c-0.704,0.686-1.056,1.606-1.056,2.766c0,0.56,0.091,1.073,0.271,1.541
		c0.181,0.467,0.445,0.868,0.795,1.205c0.348,0.336,0.777,0.598,1.289,0.784C375.203,40.636,375.789,40.73,376.449,40.73z"/>
	<path fill="#FFFFFF" d="M396.662,30.755c1.133,0,2.179,0.189,3.138,0.569s1.787,0.928,2.485,1.645
		c0.697,0.716,1.242,1.6,1.634,2.652c0.393,1.053,0.589,2.251,0.589,3.596c0,0.523-0.057,0.872-0.168,1.047
		c-0.113,0.174-0.324,0.261-0.636,0.261h-12.591c0.025,1.196,0.187,2.236,0.485,3.12c0.3,0.885,0.71,1.622,1.233,2.214
		s1.146,1.034,1.867,1.326c0.723,0.293,1.533,0.439,2.43,0.439c0.834,0,1.553-0.097,2.157-0.29c0.604-0.192,1.124-0.401,1.56-0.626
		c0.436-0.224,0.801-0.433,1.094-0.625c0.292-0.193,0.544-0.29,0.756-0.29c0.273,0,0.486,0.106,0.635,0.317l0.935,1.215
		c-0.411,0.498-0.903,0.931-1.476,1.298c-0.573,0.367-1.187,0.67-1.84,0.906c-0.654,0.236-1.33,0.414-2.027,0.532
		s-1.389,0.178-2.074,0.178c-1.307,0-2.512-0.222-3.614-0.663c-1.103-0.442-2.055-1.09-2.858-1.943
		c-0.803-0.853-1.429-1.908-1.877-3.166c-0.449-1.258-0.673-2.702-0.673-4.334c0-1.32,0.202-2.553,0.607-3.699
		c0.404-1.146,0.987-2.139,1.747-2.979c0.759-0.841,1.688-1.501,2.783-1.98S395.291,30.755,396.662,30.755z M396.737,33.202
		c-1.607,0-2.871,0.464-3.793,1.392s-1.494,2.214-1.719,3.857h10.294c0-0.771-0.106-1.479-0.317-2.12
		c-0.212-0.642-0.523-1.195-0.934-1.663c-0.412-0.467-0.913-0.828-1.504-1.083C398.172,33.33,397.496,33.202,396.737,33.202z"/>
	<path fill="#FFFFFF" d="M408.748,49.977V31.053h1.979c0.474,0,0.772,0.23,0.897,0.691l0.261,2.055
		c0.822-0.909,1.74-1.644,2.755-2.204c1.016-0.561,2.189-0.841,3.521-0.841c1.034,0,1.946,0.171,2.737,0.514s1.45,0.828,1.98,1.457
		c0.528,0.629,0.931,1.386,1.204,2.27c0.274,0.885,0.412,1.862,0.412,2.934v12.049h-3.326V37.928c0-1.433-0.326-2.544-0.98-3.335
		s-1.653-1.187-2.998-1.187c-0.984,0-1.902,0.237-2.756,0.71c-0.854,0.474-1.641,1.115-2.363,1.924v13.937H408.748z"/>
	<path fill="#FFFFFF" d="M442.43,34.416c-0.1,0.138-0.199,0.243-0.299,0.317c-0.1,0.075-0.243,0.112-0.43,0.112
		c-0.188,0-0.39-0.077-0.607-0.233c-0.218-0.155-0.495-0.327-0.831-0.514c-0.337-0.187-0.745-0.357-1.224-0.514
		c-0.479-0.155-1.068-0.233-1.766-0.233c-0.922,0-1.737,0.165-2.447,0.495s-1.305,0.807-1.783,1.429
		c-0.48,0.623-0.842,1.376-1.084,2.261c-0.243,0.884-0.364,1.874-0.364,2.97c0,1.146,0.13,2.164,0.392,3.055
		s0.629,1.638,1.103,2.242c0.474,0.604,1.05,1.064,1.728,1.382c0.68,0.317,1.441,0.477,2.289,0.477c0.81,0,1.476-0.097,1.999-0.29
		c0.522-0.192,0.958-0.407,1.308-0.645c0.349-0.236,0.635-0.451,0.859-0.644c0.225-0.193,0.448-0.29,0.672-0.29
		c0.287,0,0.498,0.106,0.636,0.317l0.935,1.215c-0.822,1.009-1.85,1.746-3.083,2.213c-1.233,0.468-2.534,0.701-3.904,0.701
		c-1.184,0-2.282-0.218-3.298-0.654c-1.015-0.436-1.896-1.067-2.643-1.896c-0.748-0.828-1.336-1.847-1.766-3.055
		s-0.645-2.584-0.645-4.129c0-1.407,0.196-2.708,0.588-3.904c0.393-1.195,0.966-2.226,1.719-3.092
		c0.754-0.865,1.685-1.541,2.793-2.026c1.109-0.486,2.379-0.729,3.812-0.729c1.319,0,2.491,0.215,3.512,0.645
		s1.925,1.036,2.709,1.821L442.43,34.416z"/>
	<path fill="#FFFFFF" d="M452.518,55.563c-0.113,0.249-0.253,0.448-0.421,0.598s-0.427,0.224-0.775,0.224h-2.466l3.456-7.51
		l-7.809-17.821h2.876c0.287,0,0.512,0.071,0.674,0.215c0.161,0.144,0.279,0.302,0.354,0.477l5.062,11.918
		c0.112,0.274,0.208,0.549,0.29,0.822c0.08,0.274,0.152,0.555,0.215,0.841c0.086-0.286,0.174-0.566,0.262-0.841
		c0.086-0.273,0.186-0.554,0.299-0.841l4.912-11.899c0.075-0.199,0.203-0.364,0.383-0.495c0.181-0.131,0.377-0.196,0.589-0.196
		h2.653L452.518,55.563z"/>
</g>
</svg>
